<svg width="31" height="31" viewBox="0 0 31 31" fill="none" xmlns="http://www.w3.org/2000/svg">
<path d="M16.0586 2.80801C15.9083 2.66393 15.7082 2.5835 15.5 2.5835C15.2918 2.5835 15.0917 2.66393 14.9414 2.80801C13.1595 4.51494 10.624 5.44107 8.45912 5.93384C7.38704 6.17667 6.43185 6.30842 5.74533 6.37946C5.39009 6.41591 5.03387 6.44218 4.67713 6.45826H4.66292C4.45219 6.46331 4.25179 6.5506 4.10456 6.70145C3.95733 6.8523 3.87494 7.05476 3.875 7.26555V13.401C3.875 16.5249 4.67777 19.6384 6.52162 22.2973C8.36935 24.962 11.2298 27.121 15.2591 28.3798C15.416 28.4289 15.584 28.4289 15.7409 28.3798C23.8571 25.8436 27.125 19.6959 27.125 13.5624V7.26555C27.1251 7.05476 27.0427 6.8523 26.8954 6.70145C26.7482 6.5506 26.5478 6.46331 26.3371 6.45826H26.3229L26.2712 6.45632L26.0594 6.44534C25.7907 6.42917 25.5224 6.4072 25.2547 6.37946C24.3421 6.2846 23.4359 6.1358 22.5409 5.93384C20.3754 5.44107 17.8399 4.51494 16.0586 2.80801Z" fill="url(#paint0_radial_258_57)"/>
<path d="M16.0586 2.80801C15.9083 2.66393 15.7082 2.5835 15.5 2.5835C15.2918 2.5835 15.0917 2.66393 14.9414 2.80801C13.1595 4.51494 10.624 5.44107 8.45912 5.93384C7.38704 6.17667 6.43185 6.30842 5.74533 6.37946C5.39009 6.41591 5.03387 6.44218 4.67713 6.45826H4.66292C4.45219 6.46331 4.25179 6.5506 4.10456 6.70145C3.95733 6.8523 3.87494 7.05476 3.875 7.26555V13.401C3.875 16.5249 4.67777 19.6384 6.52162 22.2973C8.36935 24.962 11.2298 27.121 15.2591 28.3798C15.416 28.4289 15.584 28.4289 15.7409 28.3798C23.8571 25.8436 27.125 19.6959 27.125 13.5624V7.26555C27.1251 7.05476 27.0427 6.8523 26.8954 6.70145C26.7482 6.5506 26.5478 6.46331 26.3371 6.45826H26.3229L26.2712 6.45632L26.0594 6.44534C25.7907 6.42917 25.5224 6.4072 25.2547 6.37946C24.3421 6.2846 23.4359 6.1358 22.5409 5.93384C20.3754 5.44107 17.8399 4.51494 16.0586 2.80801Z" fill="url(#paint1_radial_258_57)" fill-opacity="0.5"/>
<path d="M29.7083 22.6042C29.7083 18.6807 26.5276 15.5 22.6042 15.5C18.6807 15.5 15.5 18.6807 15.5 22.6042C15.5 26.5276 18.6807 29.7083 22.6042 29.7083C26.5276 29.7083 29.7083 26.5276 29.7083 22.6042Z" fill="#444444"/>
<path d="M29.7083 22.6042C29.7083 18.6807 26.5276 15.5 22.6042 15.5C18.6807 15.5 15.5 18.6807 15.5 22.6042C15.5 26.5276 18.6807 29.7083 22.6042 29.7083C26.5276 29.7083 29.7083 26.5276 29.7083 22.6042Z" fill="url(#paint2_linear_258_57)"/>
<path d="M26.9358 19.5641C27.0569 19.6852 27.1249 19.8494 27.1249 20.0207C27.1249 20.1919 27.0569 20.3562 26.9358 20.4773L21.7691 25.644C21.648 25.765 21.4838 25.8331 21.3125 25.8331C21.1413 25.8331 20.977 25.765 20.8559 25.644L18.2726 23.0606C18.1549 22.9388 18.0898 22.7757 18.0913 22.6064C18.0928 22.437 18.1607 22.275 18.2804 22.1553C18.4002 22.0355 18.5622 21.9676 18.7315 21.9662C18.9008 21.9647 19.064 22.0298 19.1858 22.1474L21.3125 24.2742L26.0226 19.5641C26.1437 19.443 26.3079 19.375 26.4792 19.375C26.6504 19.375 26.8147 19.443 26.9358 19.5641Z" fill="#D9D9D9"/>
<path d="M26.9358 19.5641C27.0569 19.6852 27.1249 19.8494 27.1249 20.0207C27.1249 20.1919 27.0569 20.3562 26.9358 20.4773L21.7691 25.644C21.648 25.765 21.4838 25.8331 21.3125 25.8331C21.1413 25.8331 20.977 25.765 20.8559 25.644L18.2726 23.0606C18.1549 22.9388 18.0898 22.7757 18.0913 22.6064C18.0928 22.437 18.1607 22.275 18.2804 22.1553C18.4002 22.0355 18.5622 21.9676 18.7315 21.9662C18.9008 21.9647 19.064 22.0298 19.1858 22.1474L21.3125 24.2742L26.0226 19.5641C26.1437 19.443 26.3079 19.375 26.4792 19.375C26.6504 19.375 26.8147 19.443 26.9358 19.5641Z" fill="url(#paint3_linear_258_57)"/>
<defs>
<radialGradient id="paint0_radial_258_57" cx="0" cy="0" r="1" gradientUnits="userSpaceOnUse" gradientTransform="translate(-5.25902 -11.948) rotate(54.497) scale(61.4824 54.3117)">
<stop offset="0.338" stop-color="#0FAFFF"/>
<stop offset="0.529" stop-color="#367AF2"/>
<stop offset="0.682" stop-color="#5750E2"/>
<stop offset="0.861" stop-color="#CC23D1"/>
</radialGradient>
<radialGradient id="paint1_radial_258_57" cx="0" cy="0" r="1" gradientUnits="userSpaceOnUse" gradientTransform="translate(22.9729 24.3801) rotate(90) scale(9.52604 9.7982)">
<stop offset="0.5" stop-color="#1E1868"/>
<stop offset="1" stop-color="#1E1868" stop-opacity="0"/>
</radialGradient>
<linearGradient id="paint2_linear_258_57" x1="16.0076" y1="18.1641" x2="25.8127" y2="28.3514" gradientUnits="userSpaceOnUse">
<stop stop-color="#52D17C"/>
<stop offset="1" stop-color="#22918B"/>
</linearGradient>
<linearGradient id="paint3_linear_258_57" x1="19.7787" y1="20.0336" x2="21.2473" y2="27.2934" gradientUnits="userSpaceOnUse">
<stop stop-color="white"/>
<stop offset="1" stop-color="#E3FFD9"/>
</linearGradient>
</defs>
</svg>
